<svg width="36" height="36" viewBox="0 0 36 36" fill="none" xmlns="http://www.w3.org/2000/svg">
<path d="M30.375 15.75V29.25C30.375 29.8468 30.1379 30.4191 29.716 30.841C29.294 31.263 28.7217 31.5 28.125 31.5H7.875C7.27826 31.5 6.70597 31.263 6.28401 30.841C5.86205 30.4191 5.625 29.8468 5.625 29.25V15.75C5.625 15.1533 5.86205 14.581 6.28401 14.159C6.70597 13.7371 7.27826 13.5 7.875 13.5H11.25C11.5484 13.5 11.8345 13.6186 12.0455 13.8295C12.2565 14.0405 12.375 14.3267 12.375 14.625C12.375 14.9234 12.2565 15.2095 12.0455 15.4205C11.8345 15.6315 11.5484 15.75 11.25 15.75H7.875V29.25H28.125V15.75H24.75C24.4516 15.75 24.1655 15.6315 23.9545 15.4205C23.7435 15.2095 23.625 14.9234 23.625 14.625C23.625 14.3267 23.7435 14.0405 23.9545 13.8295C24.1655 13.6186 24.4516 13.5 24.75 13.5H28.125C28.7217 13.5 29.294 13.7371 29.716 14.159C30.1379 14.581 30.375 15.1533 30.375 15.75ZM13.1709 9.79597L16.875 6.0905V19.125C16.875 19.4234 16.9935 19.7096 17.2045 19.9205C17.4155 20.1315 17.7016 20.25 18 20.25C18.2984 20.25 18.5845 20.1315 18.7955 19.9205C19.0065 19.7096 19.125 19.4234 19.125 19.125V6.0905L22.8291 9.79597C23.0402 10.0071 23.3265 10.1257 23.625 10.1257C23.9235 10.1257 24.2098 10.0071 24.4209 9.79597C24.632 9.58487 24.7506 9.29857 24.7506 9.00003C24.7506 8.7015 24.632 8.41519 24.4209 8.20409L18.7959 2.57909C18.6915 2.47449 18.5674 2.39152 18.4308 2.3349C18.2942 2.27829 18.1478 2.24915 18 2.24915C17.8522 2.24915 17.7058 2.27829 17.5692 2.3349C17.4326 2.39152 17.3085 2.47449 17.2041 2.57909L11.5791 8.20409C11.368 8.41519 11.2494 8.7015 11.2494 9.00003C11.2494 9.29857 11.368 9.58487 11.5791 9.79597C11.7902 10.0071 12.0765 10.1257 12.375 10.1257C12.6735 10.1257 12.9598 10.0071 13.1709 9.79597Z" fill="white" style="fill:white;fill-opacity:1;"/>
</svg>
